<?xml version="1.0" encoding="UTF-8" standalone="no"?>
<!-- Created with Inkscape (http://www.inkscape.org/) -->

<svg
   width="143.0mm"
   height="111.0mm"
   viewBox="0 0 143.0 111.0"
   version="1.1"
   id="svg1"
   xml:space="preserve"
   inkscape:version="1.3.2 (091e20e, 2023-11-25, custom)"
   sodipodi:docname="Rear Panel Mask.svg"
   xmlns:inkscape="http://www.inkscape.org/namespaces/inkscape"
   xmlns:sodipodi="http://sodipodi.sourceforge.net/DTD/sodipodi-0.dtd"
   xmlns="http://www.w3.org/2000/svg"
   xmlns:svg="http://www.w3.org/2000/svg"><sodipodi:namedview
     id="namedview1"
     pagecolor="#ffffff"
     bordercolor="#000000"
     borderopacity="0.25"
     inkscape:showpageshadow="2"
     inkscape:pageopacity="0.0"
     inkscape:pagecheckerboard="0"
     inkscape:deskcolor="#d1d1d1"
     inkscape:document-units="mm"
     inkscape:zoom="1.5750281"
     inkscape:cx="239.67827"
     inkscape:cy="99.998219"
     inkscape:window-width="1920"
     inkscape:window-height="1017"
     inkscape:window-x="-8"
     inkscape:window-y="-8"
     inkscape:window-maximized="1"
     inkscape:current-layer="g2" /><defs
     id="defs1"><marker
       id="DistanceX"
       orient="auto"
       refX="0.0"
       refY="0.0"
       style="overflow:visible"><path
         d="M 3,-3 L -3,3 M 0,-5 L  0,5"
         style="stroke:#000000; stroke-width:0.5"
         id="path1" /></marker><pattern
       id="Hatch"
       patternUnits="userSpaceOnUse"
       width="8"
       height="8"
       x="0"
       y="0"><path
         d="M8 4 l-4,4"
         stroke="#000000"
         stroke-width="0.25"
         linecap="square"
         id="path2" /><path
         d="M6 2 l-4,4"
         stroke="#000000"
         stroke-width="0.25"
         linecap="square"
         id="path3" /><path
         d="M4 0 l-4,4"
         stroke="#000000"
         stroke-width="0.25"
         linecap="square"
         id="path4" /></pattern><symbol
       id="*MODEL_SPACE" /><symbol
       id="*PAPER_SPACE" /></defs><g
     inkscape:label="[fixed] BG"
     inkscape:groupmode="layer"
     sodipodi:insensitive="true"
     id="g1"><rect
       x="0"
       y="0"
       width="143.0"
       height="111.0"
       style="fill:#FFFFFF;fill-opacity:1;stroke:none"
       id="rect1" /></g><g
     inkscape:label="B.Mask"
     inkscape:groupmode="layer"
     id="g2"
     style="display:inline;fill:#000000;fill-opacity:1"><path
       id="path5-7"
       style="fill:#000000;fill-opacity:1;stroke:none;stroke-width:0.2;stroke-dasharray:none"
       inkscape:label="trim"
       d="M 3.999537,0.50000014 A 3.5000097,3.4999998 0 0 0 0.50000014,3.9995381 V 106.99998 A 3.5000097,3.4999998 0 0 0 3.999537,110.50001 H 138.99995 A 3.5000097,3.4999998 0 0 0 142.5,106.99998 V 3.9995381 a 3.5000097,3.4999998 0 0 0 -3.50005,-3.49953796 z m 4.0312903,0.499719 H 134.96917 a 1.0000029,1.0000001 0 0 1 0.89556,1.44435996 3.5000097,3.4999998 0 0 0 4.6912,4.6911948 1.0000029,1.0000001 0 0 1 1.44436,0.8955352 V 102.96868 a 1.0000029,1.0000001 0 0 1 -1.44436,0.89556 3.5000097,3.4999998 0 0 0 -4.6912,4.6912 1.0000029,1.0000001 0 0 1 -0.89556,1.44436 H 8.0308273 a 1.0000029,1.0000001 0 0 1 -0.8955535,-1.44436 3.5000097,3.4999998 0 0 0 -4.6912002,-4.6912 1.0000029,1.0000001 0 0 1 -1.44436205,-0.89556 V 8.0308091 A 1.0000029,1.0000001 0 0 1 2.4440736,7.1352739 3.5000097,3.4999998 0 0 0 7.1352738,2.4440791 1.0000029,1.0000001 0 0 1 8.0308273,0.99971914 Z" /><path
       d="m 43.499894,69.499761 a 3.5000097,3.4999998 0 0 0 -7.000019,0 3.5000097,3.4999998 0 0 0 7.000019,0 z"
       style="fill:#000000;fill-opacity:1;stroke:none;stroke-width:0.2;stroke-dasharray:none"
       id="path12-7" /><path
       d="m 64.499953,69.499761 a 3.50001,3.5000001 0 0 0 -7.000018,0 3.50001,3.5000001 0 0 0 7.000018,0 z"
       style="fill:#000000;fill-opacity:1;stroke:none;stroke-width:0.2;stroke-dasharray:none"
       id="path14-1" /><path
       d="m 85.500012,69.499761 a 3.5000097,3.4999998 0 0 0 -7.000018,0 3.5000097,3.4999998 0 0 0 7.000018,0 z"
       style="fill:#000000;fill-opacity:1;stroke:none;stroke-width:0.2;stroke-dasharray:none"
       id="path16-8" /><path
       d="m 106.50007,69.499761 a 3.50001,3.5000001 0 0 0 -7.000017,0 3.50001,3.5000001 0 0 0 7.000017,0 z"
       style="fill:#000000;fill-opacity:1;stroke:none;stroke-width:0.2;stroke-dasharray:none"
       id="path18-3" /></g><g
     inkscape:label="F.Mask"
     inkscape:groupmode="layer"
     id="g3"
     style="display:inline"><path
       id="path5"
       style="fill:#000000;stroke:none;stroke-width:0.755906;stroke-dasharray:none"
       inkscape:label="trim"
       d="m -633.0718,1292.5993 a 13.228346,13.228346 0 0 0 -13.22656,13.2266 v 389.293 a 13.228346,13.228346 0 0 0 13.22656,13.2285 h 510.23634 a 13.228346,13.228346 0 0 0 13.22851,-13.2285 v -389.293 a 13.228346,13.228346 0 0 0 -13.22851,-13.2266 z m 15.23633,1.8887 h 479.76563 a 3.779528,3.779528 0 0 1 3.38477,5.459 13.228346,13.228346 0 0 0 17.73047,17.7305 3.779528,3.779528 0 0 1 5.45898,3.3847 v 358.8203 a 3.779528,3.779528 0 0 1 -5.45898,3.3848 13.228346,13.228346 0 0 0 -17.73047,17.7305 3.779528,3.779528 0 0 1 -3.38477,5.459 h -479.76563 a 3.779528,3.779528 0 0 1 -3.38476,-5.459 13.228346,13.228346 0 0 0 -17.73047,-17.7305 3.779528,3.779528 0 0 1 -5.45899,-3.3848 v -358.8203 a 3.779528,3.779528 0 0 1 5.45899,-3.3847 13.228346,13.228346 0 0 0 17.73047,-17.7305 3.779528,3.779528 0 0 1 3.38476,-5.459 z"
       transform="matrix(0.26458333,0,0,0.26458333,171.5,-341.50001)" /><path
       d="m -483.77953,1553.3858 a 13.228346,13.228346 0 0 0 -26.45669,0 13.228346,13.228346 0 0 0 26.45669,0 z"
       style="fill:#000000;stroke:none;stroke-width:0.755906;stroke-dasharray:none"
       id="path12"
       transform="matrix(0.26458333,0,0,0.26458333,171.5,-341.50001)" /><path
       d="m -404.40945,1553.3858 a 13.228347,13.228347 0 0 0 -26.45669,0 13.228347,13.228347 0 0 0 26.45669,0 z"
       style="fill:#000000;stroke:none;stroke-width:0.755906;stroke-dasharray:none"
       id="path14"
       transform="matrix(0.26458333,0,0,0.26458333,171.5,-341.50001)" /><path
       d="m -325.03937,1553.3858 a 13.228346,13.228346 0 0 0 -26.45669,0 13.228346,13.228346 0 0 0 26.45669,0 z"
       style="fill:#000000;stroke:none;stroke-width:0.755906;stroke-dasharray:none"
       id="path16"
       transform="matrix(0.26458333,0,0,0.26458333,171.5,-341.50001)" /><path
       d="m -245.66929,1553.3858 a 13.228347,13.228347 0 0 0 -26.45669,0 13.228347,13.228347 0 0 0 26.45669,0 z"
       style="fill:#000000;stroke:none;stroke-width:0.755906;stroke-dasharray:none"
       id="path18"
       transform="matrix(0.26458333,0,0,0.26458333,171.5,-341.50001)" /></g><g
     inkscape:label="Dwgs.User"
     inkscape:groupmode="layer"
     id="g4"
     style="display:none"><path
       d="m -122.83465,1710.2362 a 15.11811,15.11811 0 0 0 15.11812,-15.1181 v -389.2913 a 15.11811,15.11811 0 0 0 -15.11812,-15.1181 h -510.23622 a 15.11811,15.11811 0 0 0 -15.11811,15.1181 v 389.2913 a 15.11811,15.11811 0 0 0 15.11811,15.1181 z"
       style="fill:none;stroke:#000000;stroke-width:0.755906;stroke-dasharray:none"
       id="path27"
       inkscape:label="Outline"
       transform="matrix(0.26458333,0,0,0.26458333,171.5,-341.50001)" /></g><g
     inkscape:label="0"
     id="g27"
     transform="matrix(0.26458333,0,0,0.26458333,171.5,-341.50001)"
     style="display:none;stroke-width:0.755906;stroke-dasharray:none"><path
       d="m -626.64567,1695.1181 a 6.425197,6.425197 0 0 0 -12.85039,0 6.425197,6.425197 0 0 0 12.85039,0 z"
       style="fill:none;stroke:#000000;stroke-width:0.755906;stroke-dasharray:none"
       id="path6" /><path
       d="m -116.40945,1695.1181 a 6.425197,6.425197 0 0 0 -12.85039,0 6.425197,6.425197 0 0 0 12.85039,0 z"
       style="fill:none;stroke:#000000;stroke-width:0.755906;stroke-dasharray:none"
       id="path7" /><path
       d="m -116.40945,1305.8268 a 6.425197,6.425197 0 0 0 -12.85039,0 6.425197,6.425197 0 0 0 12.85039,0 z"
       style="fill:none;stroke:#000000;stroke-width:0.755906;stroke-dasharray:none"
       id="path8" /><path
       d="m -626.64567,1305.8268 a 6.425197,6.425197 0 0 0 -12.85039,0 6.425197,6.425197 0 0 0 12.85039,0 z"
       style="fill:none;stroke:#000000;stroke-width:0.755906;stroke-dasharray:none"
       id="path9" /><path
       d="m -490.58268,1553.3858 a 6.425197,6.425197 0 0 0 -12.85039,0 6.425197,6.425197 0 0 0 12.85039,0 z"
       style="fill:none;stroke:#000000;stroke-width:0.755906;stroke-dasharray:none"
       id="path11" /><path
       d="m -411.2126,1553.3858 a 6.425197,6.425197 0 0 0 -12.85039,0 6.425197,6.425197 0 0 0 12.85039,0 z"
       style="fill:none;stroke:#000000;stroke-width:0.755906;stroke-dasharray:none"
       id="path13" /><path
       d="m -331.84252,1553.3858 a 6.425197,6.425197 0 0 0 -12.85039,0 6.425197,6.425197 0 0 0 12.85039,0 z"
       style="fill:none;stroke:#000000;stroke-width:0.755906;stroke-dasharray:none"
       id="path15" /><path
       d="m -252.47244,1553.3858 a 6.425197,6.425197 0 0 0 -12.85039,0 6.425197,6.425197 0 0 0 12.85039,0 z"
       style="fill:none;stroke:#000000;stroke-width:0.755906;stroke-dasharray:none"
       id="path17" /><path
       d="m -331.84252,1553.3858 a 6.425197,6.425197 0 0 0 -12.85039,0 6.425197,6.425197 0 0 0 12.85039,0 z"
       style="fill:none;stroke:#000000;stroke-width:0.755906;stroke-dasharray:none"
       id="path19" /><path
       d="m -490.58268,1553.3858 a 6.425197,6.425197 0 0 0 -12.85039,0 6.425197,6.425197 0 0 0 12.85039,0 z"
       style="fill:none;stroke:#000000;stroke-width:0.755906;stroke-dasharray:none"
       id="path20" /><path
       d="m -411.2126,1553.3858 a 6.425197,6.425197 0 0 0 -12.85039,0 6.425197,6.425197 0 0 0 12.85039,0 z"
       style="fill:none;stroke:#000000;stroke-width:0.755906;stroke-dasharray:none"
       id="path21" /><path
       d="m -252.47244,1553.3858 a 6.425197,6.425197 0 0 0 -12.85039,0 6.425197,6.425197 0 0 0 12.85039,0 z"
       style="fill:none;stroke:#000000;stroke-width:0.755906;stroke-dasharray:none"
       id="path22" /><path
       d="m -626.64567,1695.1181 a 6.425197,6.425197 0 0 0 -12.85039,0 6.425197,6.425197 0 0 0 12.85039,0 z"
       style="fill:none;stroke:#000000;stroke-width:0.755906;stroke-dasharray:none"
       id="path23" /><path
       d="m -116.40945,1305.8268 a 6.425197,6.425197 0 0 0 -12.85039,0 6.425197,6.425197 0 0 0 12.85039,0 z"
       style="fill:none;stroke:#000000;stroke-width:0.755906;stroke-dasharray:none"
       id="path24" /><path
       d="m -116.40945,1695.1181 a 6.425197,6.425197 0 0 0 -12.85039,0 6.425197,6.425197 0 0 0 12.85039,0 z"
       style="fill:none;stroke:#000000;stroke-width:0.755906;stroke-dasharray:none"
       id="path25" /><path
       d="m -626.64567,1305.8268 a 6.425197,6.425197 0 0 0 -12.85039,0 6.425197,6.425197 0 0 0 12.85039,0 z"
       style="fill:none;stroke:#000000;stroke-width:0.755906;stroke-dasharray:none"
       id="path26" /></g></svg>
