<?xml version="1.0" encoding="UTF-8" standalone="no"?>
<!-- Created with Inkscape (http://www.inkscape.org/) -->

<svg
   width="128"
   height="64"
   viewBox="0 0 33.8666666666 16.9333333333"
   version="1.1"
   id="svg1"
   inkscape:version="1.3.2 (091e20e, 2023-11-25, custom)"
   sodipodi:docname="foxglove logo bitmap.svg"
   inkscape:export-filename="..\..\..\..\..\..\Desktop\foxglove_logo_test.png"
   inkscape:export-xdpi="96"
   inkscape:export-ydpi="96"
   xmlns:inkscape="http://www.inkscape.org/namespaces/inkscape"
   xmlns:sodipodi="http://sodipodi.sourceforge.net/DTD/sodipodi-0.dtd"
   xmlns="http://www.w3.org/2000/svg"
   xmlns:svg="http://www.w3.org/2000/svg">
  <sodipodi:namedview
     id="namedview1"
     pagecolor="#ffffff"
     bordercolor="#000000"
     borderopacity="0.25"
     inkscape:showpageshadow="2"
     inkscape:pageopacity="0.0"
     inkscape:pagecheckerboard="0"
     inkscape:deskcolor="#d1d1d1"
     inkscape:document-units="mm"
     inkscape:zoom="7.99999998734"
     inkscape:cx="93.6250001482"
     inkscape:cy="25.5625000405"
     inkscape:window-width="1920"
     inkscape:window-height="1017"
     inkscape:window-x="-8"
     inkscape:window-y="-8"
     inkscape:window-maximized="1"
     inkscape:current-layer="g19"
     inkscape:export-bgcolor="#ffffffff" />
  <defs
     id="defs1" />
  <g
     inkscape:label="Layer 1"
     inkscape:groupmode="layer"
     id="layer1">
    <g
       id="g19"
       transform="matrix(0.519033285711,0,0,0.519033285711,-14.4323469132,-6.75995591902)">
      <path
         id="path19"
         style="fill:#2b2b2b;stroke-width:0;fill-opacity:1"
         d="M 53.033456,32.897679 H 41.016619 c -1.661999,0 -2.999817,1.338335 -2.999817,3.000334 0,1.661998 1.337818,2.999816 2.999817,2.999816 h 47.000232 c 1.661998,0 2.999817,-1.337818 2.999817,-2.999816 0,-1.661999 -1.337819,-3.000334 -2.999817,-3.000334 H 58.449146 c -0.376633,1.366018 -1.003086,2.681545 -2.194698,3.491776 -1.14733,0.778899 -3.157586,0.888411 -3.857645,-0.531233 -0.465157,-1.043781 -0.05959,-2.12155 0.636653,-2.960543 z" />
      <text
         xml:space="preserve"
         style="font-style:normal;font-variant:normal;font-weight:normal;font-stretch:normal;font-size:4.93889px;font-family:'Magnolia Script';-inkscape-font-specification:'Magnolia Script';letter-spacing:0.0529167px;fill:#ffffff;stroke-width:0;fill-opacity:1"
         x="39.9905052185"
         y="37.5643234253"
         id="text2"><tspan
           sodipodi:role="line"
           id="tspan1"
           style="font-style:normal;font-variant:normal;font-weight:normal;font-stretch:normal;font-size:4.93889px;font-family:'Rounds Black';-inkscape-font-specification:'Rounds Black, ';fill:#ffffff;stroke-width:0;fill-opacity:1"
           x="39.9905052185"
           y="37.5643234253">dsp</tspan></text>
      <text
         xml:space="preserve"
         style="font-style:normal;font-variant:normal;font-weight:normal;font-stretch:normal;font-size:4.9389px;font-family:'Rounds Black';-inkscape-font-specification:'Rounds Black, ';letter-spacing:0.0529167px;fill:#ffffff;stroke-width:0;fill-opacity:1"
         x="59.6418762207"
         y="37.5643310547"
         id="text3"><tspan
           sodipodi:role="line"
           id="tspan2"
           style="stroke-width:0;fill:#ffffff;fill-opacity:1"
           x="59.6418762207"
           y="37.5643310547">amplifier</tspan></text>
      <path
         style="font-size:14.1111px;font-family:'Magnolia Script';-inkscape-font-specification:'Magnolia Script';letter-spacing:0.0529167px;display:inline;stroke-width:0;fill:#2b2b2b;fill-opacity:1"
         d="m 33.697584,20.904301 c -2.610553,0 -3.85233,1.015999 -3.85233,2.412998 0,0.846666 0.564444,1.41111 1.481665,1.41111 0.719667,0 1.072444,-0.451555 1.072444,-0.790221 0,-0.08467 -0.01411,-0.127 -0.01411,-0.127 0,0 -0.08467,0.04233 -0.239889,0.04233 -0.352777,0 -0.564444,-0.254 -0.564444,-0.64911 0,-0.804333 0.635,-1.523999 1.91911,-1.523999 h 0.127 c 0,0.183444 -0.01411,0.380999 -0.07056,0.691444 l -1.326443,7.57766 c -0.183444,1.086555 0.01411,1.53811 1.058332,1.53811 0.578555,0 0.804333,-0.141111 0.804333,-0.141111 0,0 -0.155222,-0.352777 0.01411,-1.340554 l 0.649111,-3.71122 c 0.733777,0.07056 1.340554,0.183445 1.961443,0.183445 0.733777,0 0.973666,-0.324556 0.973666,-0.691444 0,-0.268111 -0.112889,-0.381 -0.112889,-0.381 0,0 -0.324555,0.05645 -0.832555,0.05645 h -1.848554 l 0.606777,-3.428998 c 0.945444,0.324556 1.735665,0.762 3.118553,0.762 1.227666,0 1.707443,-0.592667 1.707443,-1.326444 0,-0.225777 -0.08467,-0.395111 -0.155222,-0.465666 0,0 -0.507999,0.225778 -1.326443,0.225778 -2.808109,0 -3.598331,-0.324556 -5.150552,-0.324556 z m 8.759455,3.527775 c -2.412998,0 -3.908775,1.806221 -3.908775,4.36033 0,1.749777 1.100666,2.69522 2.596442,2.69522 2.469443,0 3.908775,-1.876776 3.908775,-4.36033 0,-1.608665 -0.945444,-2.69522 -2.596442,-2.69522 z m -1.975554,3.513664 c 0.39511,-2.102554 1.128888,-2.82222 1.834443,-2.82222 0.592666,0 0.931332,0.479778 0.931332,1.382888 0,0.352777 -0.02822,0.945444 -0.127,1.453443 -0.366888,1.904999 -1.015999,2.82222 -1.834443,2.82222 -0.592666,0 -0.931332,-0.493888 -0.931332,-1.382887 0,-0.352778 0.05644,-1.086555 0.127,-1.453444 z m 6.812135,-3.513664 c -0.691444,0 -1.114777,0.451555 -1.114777,0.889 0,0.07055 0.01411,0.126999 0.02822,0.183444 0,0 0.112889,-0.07056 0.268111,-0.07056 0.268111,0 0.409222,0.141111 0.564444,0.663222 l 0.677333,2.130776 -1.03011,0.747889 c -1.03011,0.747888 -1.298221,1.241776 -1.298221,1.763887 0,0.451555 0.253999,0.747888 0.818443,0.747888 0.338667,0 0.536222,-0.127 0.536222,-0.127 -0.04233,-0.141111 -0.05644,-0.282222 -0.05644,-0.409221 0,-0.705555 0.282222,-1.354666 0.959555,-1.834443 l 0.282222,-0.197556 0.183444,0.550333 c 0.451555,1.41111 1.171221,2.017887 2.328332,2.017887 1.28411,0 2.455331,-1.100665 2.638775,-2.088442 0.04233,-0.254 -0.08467,-0.366889 -0.268111,-0.366889 -0.465666,0.860777 -0.987777,1.227666 -1.636887,1.227666 -0.635,0 -1.044222,-0.395111 -1.340555,-1.269999 l -0.395111,-1.157111 1.227666,-0.888999 c 1.03011,-0.747888 1.298221,-1.241777 1.298221,-1.763887 0,-0.451556 -0.253999,-0.747889 -0.818443,-0.747889 -0.338667,0 -0.536222,0.127 -0.536222,0.127 0.04233,0.141111 0.05644,0.282222 0.05644,0.409222 0,0.705555 -0.282222,1.354666 -0.959555,1.834443 l -0.493888,0.352778 -0.550333,-1.679221 c -0.268109,-0.81844 -0.620887,-1.044218 -1.368775,-1.044218 z m 11.948566,1.15711 c 0.127,-0.761999 0.324555,-1.015999 0.324555,-1.015999 0,0 -0.225778,-0.141111 -0.705555,-0.141111 -0.691444,0 -1.044221,0.183445 -1.269999,0.691444 -0.324555,-0.409222 -0.818444,-0.691444 -1.523999,-0.691444 -1.650999,0 -3.485442,1.481666 -3.485442,4.628441 0,1.650999 0.917222,2.427109 2.074332,2.427109 0.733777,0 1.439332,-0.451555 2.003776,-1.326443 l -0.169333,1.001888 c -1.15711,0.564444 -1.890887,0.987777 -2.582331,1.594554 -0.691444,0.592667 -1.185333,1.354666 -1.185333,2.187221 0,0.874888 0.620889,1.481665 1.580444,1.481665 2.088443,0 3.400775,-1.820331 3.951108,-5.094107 l 0.02822,-0.169333 c 0.832555,-0.409222 1.721554,-0.90311 2.243665,-1.298221 0.282222,-0.211667 0.437444,-0.366889 0.465666,-0.508 0.04233,-0.211666 -0.09878,-0.324555 -0.268111,-0.324555 -0.846666,0.691444 -2.300109,1.269999 -2.300109,1.269999 z m -4.021664,4.670775 c -0.522111,0 -0.832555,-0.381 -0.832555,-1.171222 0,-2.271887 1.086555,-3.697108 2.04611,-3.697108 0.536222,0 0.804333,0.395111 0.931332,0.677333 l -0.126999,0.663222 c -0.268111,1.41111 -1.016,3.527775 -2.017888,3.527775 z m -1.058332,5.235218 c -0.437444,0 -0.649111,-0.268111 -0.649111,-0.635 0,-0.493888 0.282222,-0.973666 0.832555,-1.509887 0.409222,-0.409222 1.058332,-0.818444 1.989665,-1.298222 -0.423333,2.257776 -1.185332,3.443109 -2.173109,3.443109 z m 6.600456,-7.111995 c -0.09878,0.564444 -0.127,1.058333 -0.127,1.340555 0,1.128888 0.677333,1.763887 1.650999,1.763887 1.368776,0 2.469442,-1.340554 2.610553,-2.088442 0.04233,-0.254 -0.08467,-0.366889 -0.268111,-0.366889 -0.366888,0.761999 -1.001888,1.227666 -1.566332,1.227666 -0.508,0 -0.747888,-0.409222 -0.606777,-1.241777 l 1.382888,-7.845772 c 0.169333,-0.987777 0.04233,-1.396999 -1.044222,-1.396999 -0.522111,0 -0.733777,0.127 -0.733777,0.127 0,0 0.141111,0.324555 -0.01411,1.213555 z m 7.54592,-3.951108 c -2.412998,0 -3.908775,1.806221 -3.908775,4.36033 0,1.749777 1.100666,2.69522 2.596443,2.69522 1.919109,0 3.21733,-1.142999 3.697108,-2.82222 1.128888,-0.141111 2.017887,-0.90311 2.102554,-1.396999 0.02822,-0.211666 -0.07056,-0.352777 -0.254,-0.352777 0,0 -0.649111,0.945444 -1.707443,1.100666 0.04233,-0.282222 0.07055,-0.578555 0.07055,-0.889 0,-1.608665 -0.945443,-2.69522 -2.596442,-2.69522 z m 0.05644,2.737554 c 0,0.465666 0.183445,0.846666 0.536222,1.114777 -0.366889,1.693332 -1.001888,2.497664 -1.763887,2.497664 -0.592667,0 -0.931333,-0.493888 -0.931333,-1.382887 0,-0.352778 0.05644,-1.086555 0.127,-1.453444 0.395111,-2.102554 1.128888,-2.82222 1.834443,-2.82222 0.522111,0 0.846666,0.381 0.917221,1.086555 -0.465666,0.09878 -0.719666,0.479777 -0.719666,0.959555 z m 10.989022,0.832555 c -0.973665,0 -1.312332,-0.437444 -1.312332,-0.437444 0.183444,-0.691444 0.296333,-1.439333 0.296333,-2.074332 0,-0.776111 -0.409222,-1.058333 -0.888999,-1.058333 -0.592666,0 -0.959555,0.451555 -0.959555,1.044222 0,0.761999 0.239889,1.509887 0.620888,2.088443 -0.253999,1.721554 -1.086554,2.69522 -1.961442,2.69522 -0.776111,0 -1.171222,-0.606778 -1.171222,-1.763888 0,-0.423333 0.07056,-0.973666 0.155222,-1.467554 l 0.211667,-1.199444 c 0.169333,-0.973666 0.04233,-1.396999 -1.044222,-1.396999 -0.52211,0 -0.733777,0.127 -0.733777,0.127 0,0 0.127,0.296333 -0.01411,1.213555 l -0.112889,0.705555 c -0.127,0.790221 -0.211666,1.53811 -0.211666,2.328331 0,1.636888 0.874888,2.681109 2.300109,2.681109 1.058333,0 1.848554,-0.663221 2.427109,-1.495776 0.366889,-0.536222 0.663222,-1.241777 0.860777,-1.749777 0,0 0.550333,0.324556 1.340555,0.324556 0.536222,0 0.973666,-0.09878 1.185332,-0.296333 0.155223,-0.141111 0.183445,-0.310445 0.04233,-0.409222 0,0 -0.338667,0.141111 -1.030111,0.141111 z m 3.24202,3.485441 c 2.158999,0 3.513664,-1.467554 3.640664,-2.088442 0.05644,-0.254 -0.04233,-0.366889 -0.225777,-0.366889 -0.381,0.592666 -1.241777,1.340554 -2.751665,1.340554 -1.199443,0 -1.933221,-0.818443 -2.017887,-1.876776 2.483553,-0.465666 3.965219,-1.312332 3.965219,-2.596442 0,-0.719666 -0.578555,-1.467555 -2.017887,-1.467555 -1.876777,0 -3.781775,1.509888 -3.781775,4.007553 0,1.904998 1.340554,3.047997 3.189108,3.047997 z m 0.606778,-6.349995 c 0.296333,0 0.493888,0.197556 0.493888,0.493889 0,0.931332 -0.719666,1.79211 -2.44122,2.201331 0.155222,-1.763887 1.142999,-2.69522 1.947332,-2.69522 z"
         id="text17"
         aria-label="Foxglove" />
      <rect
         style="fill:none;fill-opacity:1;stroke:#000000;stroke-width:0.497914;stroke-dasharray:none"
         id="rect1"
         width="64.7515945435"
         height="32.1268386841"
         x="28.0551643372"
         y="13.2730855942"
         rx="1.92665874958"
         ry="1.92665874958" />
      <rect
         style="fill:none;fill-opacity:1;stroke:#000000;stroke-width:0.509762;stroke-dasharray:none"
         id="rect2"
         width="0.382321327925"
         height="0.0637202262878"
         x="31.2470989227"
         y="3.91213607788"
         rx="1.92665874958"
         ry="0.0637202262878" />
    </g>
  </g>
</svg>
