0
SECTION
2
HEADER
9
$INSUNITS
70
4
9
$ACADVER
1
AC1014
9
$HANDSEED
5
FFFF
0
ENDSEC
0
SECTION
2
TABLES
0
TABLE
2
VPORT
5
8
100
AcDbSymbolTable
0
ENDTAB
0
TABLE
2
LTYPE
5
5
100
AcDbSymbolTable
0
LTYPE
5
14
100
AcDbSymbolTableRecord
100
AcDbLinetypeTableRecord
2
BYBLOCK
70
0
0
LTYPE
5
15
100
AcDbSymbolTableRecord
100
AcDbLinetypeTableRecord
2
BYLAYER
70
0
0
ENDTAB
0
TABLE
2
LAYER
5
2
100
AcDbSymbolTable
70
2
0
LAYER
5
50
100
AcDbSymbolTableRecord
100
AcDbLayerTableRecord
2
0
70
0
6
CONTINUOUS
0
ENDTAB
0
TABLE
2
STYLE
5
3
100
AcDbSymbolTable
70
1
0
STYLE
5
11
100
AcDbSymbolTableRecord
100
AcDbTextStyleTableRecord
2
STANDARD
70
0
0
ENDTAB
0
TABLE
2
VIEW
5
6
100
AcDbSymbolTable
70
0
0
ENDTAB
0
TABLE
2
UCS
5
7
100
AcDbSymbolTable
70
0
0
ENDTAB
0
TABLE
2
APPID
5
9
100
AcDbSymbolTable
70
2
0
APPID
5
12
100
AcDbSymbolTableRecord
100
AcDbRegAppTableRecord
2
ACAD
70
0
0
ENDTAB
0
TABLE
2
DIMSTYLE
5
A
100
AcDbSymbolTable
70
1
0
ENDTAB
0
TABLE
2
BLOCK_RECORD
5
1
100
AcDbSymbolTable
70
1
0
BLOCK_RECORD
5
1F
100
AcDbSymbolTableRecord
100
AcDbBlockTableRecord
2
*MODEL_SPACE
0
BLOCK_RECORD
5
1B
100
AcDbSymbolTableRecord
100
AcDbBlockTableRecord
2
*PAPER_SPACE
0
ENDTAB
0
ENDSEC
0
SECTION
2
BLOCKS
0
BLOCK
5
20
100
AcDbEntity
100
AcDbBlockBegin
2
*MODEL_SPACE
0
ENDBLK
5
21
100
AcDbEntity
100
AcDbBlockEnd
0
BLOCK
5
1C
100
AcDbEntity
100
AcDbBlockBegin
2
*PAPER_SPACE
0
ENDBLK
5
1D
100
AcDbEntity
100
AcDbBlockEnd
0
ENDSEC
0
SECTION
2
ENTITIES
0
LWPOLYLINE
5
100
100
AcDbEntity
8
0
100
AcDbPolyline
90
22
70
1
43
0.0
10
33.299999999999997
20
22.099999999999987
42
0.41421356237309503
10
35.5
20
19.899999999999984
10
43.800000000000011
20
19.900000000000023
10
43.800000000000011
20
20.099999999999959
42
0.4142135623731254
10
43.499999999999986
20
20.399999999999991
10
35.5
20
20.399999999999988
42
-0.41421356237309503
10
33.799999999999997
20
22.099999999999987
10
33.800000000000004
20
39.09999999999998
42
-0.41421356237309581
10
35.5
20
40.799999999999983
10
67.5
20
40.79999999999999
42
-0.41421356237309659
10
69.200000000000003
20
39.09999999999998
10
69.200000000000003
20
22.09999999999998
42
-0.41421356237309431
10
67.5
20
20.399999999999984
10
59.500000000000014
20
20.399999999999988
42
0.41421356237309503
10
59.20000000000001
20
20.09999999999998
10
59.200000000000003
20
19.899999999999871
10
67.5
20
19.899999999999981
42
0.41421356237309442
10
69.700000000000003
20
22.09999999999998
10
69.700000000000003
20
39.09999999999998
42
0.4142135623730962
10
67.5
20
41.299999999999983
10
35.5
20
41.299999999999983
42
0.41421356237309559
10
33.299999999999997
20
39.09999999999998
0
LWPOLYLINE
5
101
100
AcDbEntity
8
0
100
AcDbPolyline
90
20
70
1
43
0.0
10
32.799999999999997
20
22.099999999999987
10
32.79999999999999
20
39.09999999999998
42
-0.41421356237309265
10
35.5
20
41.79999999999999
10
67.5
20
41.799999999999997
42
-0.41421356237309165
10
70.200000000000003
20
39.09999999999998
10
70.199999999999989
20
22.09999999999998
42
-0.41421356237309459
10
67.5
20
19.399999999999981
10
59.199999999999982
20
19.399999999999963
10
59.199999999999974
20
18.899999999999913
10
67.5
20
18.899999999999981
42
0.41421356237309465
10
70.700000000000003
20
22.09999999999998
10
70.700000000000003
20
39.09999999999998
42
0.4142135623730922
10
67.5
20
42.299999999999983
10
35.5
20
42.299999999999983
42
0.41421356237309304
10
32.299999999999997
20
39.09999999999998
10
32.299999999999997
20
22.099999999999987
42
0.41421356237309503
10
35.5
20
18.899999999999984
10
43.79999999999999
20
18.899999999999949
10
43.800000000000011
20
19.399999999999988
10
35.5
20
19.399999999999984
42
-0.41421356237309503
0
ENDSEC
0
SECTION
2
OBJECTS
0
DICTIONARY
5
C
100
AcDbDictionary
3
ACAD_GROUP
350
D
3
ACAD_MLINESTYLE
350
17
0
DICTIONARY
5
D
100
AcDbDictionary
0
DICTIONARY
5
1A
330
C
100
AcDbDictionary
0
DICTIONARY
5
17
100
AcDbDictionary
0
ENDSEC
0
EOF
