0
SECTION
2
HEADER
9
$INSUNITS
70
4
9
$ACADVER
1
AC1014
9
$HANDSEED
5
FFFF
0
ENDSEC
0
SECTION
2
TABLES
0
TABLE
2
VPORT
5
8
100
AcDbSymbolTable
0
ENDTAB
0
TABLE
2
LTYPE
5
5
100
AcDbSymbolTable
0
LTYPE
5
14
100
AcDbSymbolTableRecord
100
AcDbLinetypeTableRecord
2
BYBLOCK
70
0
0
LTYPE
5
15
100
AcDbSymbolTableRecord
100
AcDbLinetypeTableRecord
2
BYLAYER
70
0
0
ENDTAB
0
TABLE
2
LAYER
5
2
100
AcDbSymbolTable
70
2
0
LAYER
5
50
100
AcDbSymbolTableRecord
100
AcDbLayerTableRecord
2
0
70
0
6
CONTINUOUS
0
ENDTAB
0
TABLE
2
STYLE
5
3
100
AcDbSymbolTable
70
1
0
STYLE
5
11
100
AcDbSymbolTableRecord
100
AcDbTextStyleTableRecord
2
STANDARD
70
0
0
ENDTAB
0
TABLE
2
VIEW
5
6
100
AcDbSymbolTable
70
0
0
ENDTAB
0
TABLE
2
UCS
5
7
100
AcDbSymbolTable
70
0
0
ENDTAB
0
TABLE
2
APPID
5
9
100
AcDbSymbolTable
70
2
0
APPID
5
12
100
AcDbSymbolTableRecord
100
AcDbRegAppTableRecord
2
ACAD
70
0
0
ENDTAB
0
TABLE
2
DIMSTYLE
5
A
100
AcDbSymbolTable
70
1
0
ENDTAB
0
TABLE
2
BLOCK_RECORD
5
1
100
AcDbSymbolTable
70
1
0
BLOCK_RECORD
5
1F
100
AcDbSymbolTableRecord
100
AcDbBlockTableRecord
2
*MODEL_SPACE
0
BLOCK_RECORD
5
1B
100
AcDbSymbolTableRecord
100
AcDbBlockTableRecord
2
*PAPER_SPACE
0
ENDTAB
0
ENDSEC
0
SECTION
2
BLOCKS
0
BLOCK
5
20
100
AcDbEntity
100
AcDbBlockBegin
2
*MODEL_SPACE
0
ENDBLK
5
21
100
AcDbEntity
100
AcDbBlockEnd
0
BLOCK
5
1C
100
AcDbEntity
100
AcDbBlockBegin
2
*PAPER_SPACE
0
ENDBLK
5
1D
100
AcDbEntity
100
AcDbBlockEnd
0
ENDSEC
0
SECTION
2
ENTITIES
0
LWPOLYLINE
5
100
100
AcDbEntity
8
0
100
AcDbPolyline
90
58
70
1
43
0.0
10
-49.211324850504027
20
-4.0000000000000009
10
-70.499999985098839
20
-3.999999999999992
10
-70.499999985098839
20
-10.499999999999998
42
-0.19258240356725306
10
-71.327586196106068
20
-12.568965527518039
42
0.40000000000000074
10
-71.32758619610604
20
-28.431034472481976
42
-0.19258240356724995
10
-70.499999985098839
20
-30.500000000000007
10
-70.499999985098839
20
-37.250000000000057
10
-49.211324850504027
20
-37.250000000000057
10
-48.056624312124718
20
-39.250000000000099
42
-0.26794919243113025
10
-48.05662431212474
20
-41.750000000000099
10
-49.211324850504027
20
-43.750000000000064
10
-70.499999985098839
20
-43.750000000000057
10
-70.499999985098839
20
-47.468871118457685
42
0.55652313667270992
10
-69.055555543965767
20
-48.364677536578213
42
-0.71841146658311539
10
-64.364677536578199
20
-53.055555543965767
42
0.55652313667271414
10
-63.46887111845767
20
-54.499999985098846
10
-47
20
-54.499999985098846
10
-46.999999999999993
20
-49.499999985098846
42
-0.41421356237309681
10
-45.500000000000007
20
-47.999999985098867
10
24.5
20
-47.99999998509886
42
-0.41421356237309764
10
26.000000000000007
20
-49.499999985098846
10
26.000000000000007
20
-54.499999985098846
10
63.468871118457685
20
-54.499999985098846
42
0.55652313667271114
10
64.364677536578199
20
-53.055555543965774
42
-0.71841146658311872
10
69.055555543965767
20
-48.364677536578206
42
0.55652313667271114
10
70.499999985098853
20
-47.468871118457692
10
70.499999985098839
20
-43.749999999999915
10
44.133974581314391
20
-43.749999999999964
10
45.577350254117533
20
-41.250000000296019
42
0.26794919243112214
10
45.577350254117547
20
-39.74999999970391
10
44.133974581314405
20
-37.249999999999936
10
70.499999985098839
20
-37.249999999999936
10
70.499999985098839
20
-30.500000000000007
42
-0.19258240356725087
10
71.327586196106068
20
-28.431034472481969
42
0.40000000000000069
10
71.32758619610604
20
-12.568965527518035
42
-0.19258240356725029
10
70.499999985098839
20
-10.500000000000007
10
70.499999985098839
20
15.125761690334905
42
-0.21846628988602196
10
71.543478251151413
20
17.399969846087025
42
0.21846628988602307
10
73.699999985098842
20
22.09999999999998
10
73.699999985098842
20
39.09999999999998
42
0.21846628988602357
10
71.543478251151399
20
43.800030153912942
42
-0.21846628988602787
10
70.499999985098839
20
46.074238309665091
10
70.499999985098839
20
47.468871118457685
42
0.55652313667270992
10
69.055555543965767
20
48.364677536578213
42
-0.71841146658311539
10
64.364677536578199
20
53.055555543965767
42
0.55652313667271414
10
63.46887111845767
20
54.499999985098846
10
-63.468871118457685
20
54.499999985098846
42
0.55652313667271114
10
-64.364677536578199
20
53.055555543965774
42
-0.71841146658311872
10
-69.055555543965767
20
48.364677536578206
42
0.55652313667271114
10
-70.499999985098853
20
47.468871118457692
10
-70.499999985098839
20
19.398979485566361
42
-0.19626156828141775
10
-71.357142846499187
20
17.299416838466414
42
0.40824829046386313
10
-71.357142846499173
20
11.70058316153357
42
-0.19626156828141439
10
-70.499999985098839
20
9.6010205144336211
10
-70.499999985098839
20
4.0000000000000107
10
-49.211324850504027
20
3.9999999999999902
10
-47.623611610212109
20
1.2499999999645375
42
-0.26794919243111998
10
-47.623611610212116
20
-1.2499999999646088
0
LWPOLYLINE
5
101
100
AcDbEntity
8
0
100
AcDbPolyline
90
10
70
1
43
0.0
10
37
20
-14.255002001601609
10
37
20
-6.0000000894069663
42
-0.99999999999999989
10
47
20
-6.0000000894069681
10
47
20
-14.255002001601607
42
-0.36531900242220178
10
48.999999999999972
20
-24.372983346207491
10
49
20
-34.500000000000021
42
-0.41421356237309503
10
48.000000000000007
20
-35.500000000000021
10
36.000000000000007
20
-35.500000000000014
42
-0.41421356237309631
10
35.000000000000007
20
-34.500000000000014
10
35.000000000000036
20
-24.372983346207494
42
-0.36531900242220211
0
LWPOLYLINE
5
102
100
AcDbEntity
8
0
100
AcDbPolyline
90
10
70
1
43
0.0
10
16.000000000000007
20
-14.255002001601609
10
16.000000000000007
20
-6.0000000894069663
42
-0.99999999999999989
10
26.000000000000007
20
-6.0000000894069681
10
26.000000000000007
20
-14.255002001601611
42
-0.4803844614152617
10
26.000000000000007
20
-26.7449979983984
10
26.000000000000007
20
-34.500000000000014
42
-0.41421356237309503
10
25.000000000000004
20
-35.500000000000014
10
17.000000000000007
20
-35.500000000000007
42
-0.41421356237309503
10
16.000000000000007
20
-34.500000000000007
10
16.000000000000007
20
-26.744997998398404
42
-0.48038446141526087
0
LWPOLYLINE
5
103
100
AcDbEntity
8
0
100
AcDbPolyline
90
10
70
1
43
0.0
10
-26
20
-14.255002001601609
10
-26
20
-6.0000000894069663
42
-0.99999999999999989
10
-16
20
-6.0000000894069681
10
-15.999999999999996
20
-14.255002001601609
42
-0.48038446141526048
10
-16
20
-26.744997998398404
10
-16
20
-34.500000000000014
42
-0.41421356237309503
10
-17
20
-35.500000000000014
10
-25
20
-35.500000000000007
42
-0.41421356237309503
10
-26
20
-34.500000000000007
10
-26
20
-26.744997998398404
42
-0.48038446141526214
0
LWPOLYLINE
5
104
100
AcDbEntity
8
0
100
AcDbPolyline
90
10
70
1
43
0.0
10
-47
20
-14.255002001601609
10
-47
20
-6.0000000894069663
42
-0.99999999999999989
10
-37
20
-6.0000000894069681
10
-37
20
-14.255002001601611
42
-0.48038446141526076
10
-37
20
-26.744997998398404
10
-37
20
-34.500000000000014
42
-0.41421356237309503
10
-38
20
-35.500000000000014
10
-46.000000000000007
20
-35.5
42
-0.41421356237309503
10
-47
20
-34.500000000000007
10
-47
20
-26.744997998398404
42
-0.48038446141526192
0
LWPOLYLINE
5
105
100
AcDbEntity
8
0
100
AcDbPolyline
90
10
70
1
43
0.0
10
-5
20
-14.255002001601609
10
-5
20
-6.0000000894069663
42
-0.99999999999999989
10
5
20
-6.0000000894069681
10
5.0000000000000018
20
-14.255002001601609
42
-0.48038446141526103
10
5
20
-26.744997998398404
10
5.0000000000000009
20
-34.500000000000014
42
-0.41421356237309503
10
4
20
-35.500000000000014
10
-4
20
-35.500000000000007
42
-0.41421356237309503
10
-5
20
-34.500000000000007
10
-4.9999999999999982
20
-26.744997998398404
42
-0.4803844614152617
0
LWPOLYLINE
5
106
100
AcDbEntity
8
0
100
AcDbPolyline
90
16
70
1
43
0.0
10
59.500000000000014
20
20.899999999999984
42
0.41421356237309342
10
58.70000000000001
20
20.099999999999984
10
58.70000000000001
20
9.4999999999918661
42
-0.41421356237235057
10
55.5
20
6.2999999999999901
10
47.499999999996128
20
6.2999999999999945
42
-0.41421356237199802
10
44.300000000000004
20
9.4999999999918661
10
44.299999999999997
20
20.099999999999984
42
0.41421356237309342
10
43.5
20
20.899999999999981
10
35.5
20
20.899999999999984
42
-0.41421356237309503
10
34.299999999999997
20
22.099999999999987
10
34.299999999999997
20
39.09999999999998
42
-0.41421356237309503
10
35.5
20
40.299999999999983
10
67.5
20
40.299999999999976
42
-0.41421356237309725
10
68.700000000000003
20
39.09999999999998
10
68.700000000000017
20
22.09999999999998
42
-0.41421356237309725
10
67.5
20
20.899999999999981
0
LWPOLYLINE
5
107
100
AcDbEntity
8
0
100
AcDbPolyline
90
22
70
1
43
0.0
10
33.299999999999997
20
22.099999999999987
10
33.299999999999997
20
39.09999999999998
42
-0.41421356237309503
10
35.5
20
41.299999999999983
10
67.5
20
41.299999999999969
42
-0.4142135623730962
10
69.700000000000003
20
39.09999999999998
10
69.700000000000003
20
22.09999999999998
42
-0.4142135623730962
10
67.5
20
19.899999999999981
10
59.200000000000003
20
19.899999999999871
10
59.200000000000003
20
20.09999999999998
42
-0.41421356237309503
10
59.500000000000014
20
20.399999999999988
10
67.5
20
20.399999999999984
42
0.41421356237309659
10
69.200000000000003
20
22.09999999999998
10
69.200000000000003
20
39.09999999999998
42
0.41421356237309659
10
67.5
20
40.799999999999983
10
35.5
20
40.799999999999983
42
0.41421356237309503
10
33.799999999999997
20
39.09999999999998
10
33.799999999999997
20
22.099999999999987
42
0.41421356237309503
10
35.5
20
20.399999999999988
10
43.5
20
20.399999999999991
42
-0.41421356237311674
10
43.800000000000011
20
20.099999999999959
10
43.800000000000011
20
19.900000000000023
10
35.5
20
19.899999999999984
42
-0.41421356237309503
0
LWPOLYLINE
5
108
100
AcDbEntity
8
0
100
AcDbPolyline
90
20
70
1
43
0.0
10
32.799999999999997
20
22.099999999999987
42
0.41421356237309503
10
35.5
20
19.399999999999984
10
43.800000000000011
20
19.399999999999988
10
43.79999999999999
20
18.899999999999949
10
35.5
20
18.899999999999984
42
-0.41421356237309503
10
32.299999999999997
20
22.099999999999987
10
32.299999999999997
20
39.09999999999998
42
-0.41421356237309503
10
35.5
20
42.299999999999983
10
67.5
20
42.299999999999976
42
-0.41421356237309587
10
70.700000000000003
20
39.09999999999998
10
70.700000000000017
20
22.09999999999998
42
-0.41421356237309587
10
67.5
20
18.899999999999981
10
59.199999999999974
20
18.899999999999913
10
59.199999999999982
20
19.399999999999963
10
67.5
20
19.399999999999981
42
0.41421356237309598
10
70.199999999999989
20
22.09999999999998
10
70.200000000000003
20
39.09999999999998
42
0.41421356237309598
10
67.5
20
41.79999999999999
10
35.5
20
41.79999999999999
42
0.41421356237309503
10
32.799999999999997
20
39.09999999999998
0
CIRCLE
5
109
100
AcDbEntity
8
0
100
AcDbCircle
10
-10.5
20
-14.000000000000004
30
0
40
3.5000000000000009
210
0
220
0
230
1
0
CIRCLE
5
110
100
AcDbEntity
8
0
100
AcDbCircle
10
10.5
20
-14.000000000000004
30
0
40
3.5000000000000009
210
0
220
0
230
1
0
CIRCLE
5
111
100
AcDbEntity
8
0
100
AcDbCircle
10
-31.500000000000004
20
-14.000000000000004
30
0
40
3.5000000000000009
210
0
220
0
230
1
0
CIRCLE
5
112
100
AcDbEntity
8
0
100
AcDbCircle
10
31.500000000000004
20
-14.000000000000004
30
0
40
3.5000000000000009
210
0
220
0
230
1
0
LWPOLYLINE
5
113
100
AcDbEntity
8
0
100
AcDbPolyline
90
7
70
1
43
0.0
10
69.999999985098839
20
-10.499999999999996
42
0.19258240356725195
10
70.965517230588816
20
-12.913793113724932
42
-2.3333333333333361
10
55.034482769411198
20
-12.913793113724932
42
0.1925824035672527
10
56.000000014901168
20
-10.499999999999989
10
56.000000014901175
20
-7.0147186327858959
42
-0.41421356237309537
10
57.000000014901175
20
-6.0147186327858959
10
69.999999985098839
20
-6.0147186327858959
0
LWPOLYLINE
5
114
100
AcDbEntity
8
0
100
AcDbPolyline
90
7
70
1
43
0.0
10
-69.999999985098839
20
-30.500000000000007
42
0.19258240356725118
10
-70.965517230588816
20
-28.086206886275072
42
-2.3333333333333361
10
-55.034482769411206
20
-28.086206886275072
42
0.1925824035672522
10
-56.000000014901161
20
-30.500000000000014
10
-56.000000014901175
20
-33.985281367214114
42
-0.41421356237309243
10
-57.000000014901175
20
-34.985281367214114
10
-69.999999985098839
20
-34.985281367214107
0
LWPOLYLINE
5
115
100
AcDbEntity
8
0
100
AcDbPolyline
90
9
70
1
43
0.0
10
-52.000000014901168
20
19.398979890110635
42
0.19626157899894636
10
-50.999999909528533
20
16.949490033698666
42
-0.66449471261764226
10
-53.500000000000007
20
10.999999731779102
10
-68.5
20
10.999999731779099
42
-0.66449469774082048
10
-71.000000191586352
20
16.949489930498714
42
0.19626156828141395
10
-70.000000268220901
20
19.39897948556634
10
-69.999999985098839
20
23.000000268220901
10
-54.000000014901168
20
23.000000268220887
42
-0.41421356237309115
10
-52.000000014901175
20
21.000000268220905
0
CIRCLE
5
116
100
AcDbEntity
8
0
100
AcDbCircle
10
31.500000000000004
20
-14.000000000000004
30
0
40
1.6999999999999993
210
0
220
0
230
1
0
CIRCLE
5
117
100
AcDbEntity
8
0
100
AcDbCircle
10
31.500000000000004
20
-14.000000000000004
30
0
40
3.5000000000000009
210
0
220
-0
230
1
0
CIRCLE
5
118
100
AcDbEntity
8
0
100
AcDbCircle
10
10.5
20
-14.000000000000004
30
0
40
1.6999999999999993
210
0
220
0
230
1
0
CIRCLE
5
119
100
AcDbEntity
8
0
100
AcDbCircle
10
10.5
20
-14.000000000000004
30
0
40
3.5000000000000009
210
0
220
-0
230
1
0
CIRCLE
5
120
100
AcDbEntity
8
0
100
AcDbCircle
10
-10.5
20
-14.000000000000004
30
0
40
1.7000000000000004
210
0
220
0
230
1
0
CIRCLE
5
121
100
AcDbEntity
8
0
100
AcDbCircle
10
-10.5
20
-14.000000000000004
30
0
40
3.5000000000000009
210
0
220
-0
230
1
0
CIRCLE
5
122
100
AcDbEntity
8
0
100
AcDbCircle
10
-31.500000000000004
20
-14.000000000000004
30
0
40
1.6999999999999993
210
0
220
0
230
1
0
CIRCLE
5
123
100
AcDbEntity
8
0
100
AcDbCircle
10
-31.500000000000004
20
-14.000000000000004
30
0
40
3.5000000000000009
210
0
220
-0
230
1
0
LWPOLYLINE
5
124
100
AcDbEntity
8
0
100
AcDbPolyline
90
4
70
1
43
0.0
10
-37.500000000000007
20
-8.0000000000000071
10
37.499999999999993
20
-8.0000000000000071
10
37.499999999999993
20
-33.000000000000007
10
-37.500000000000007
20
-33.000000000000007
0
LINE
5
125
100
AcDbEntity
8
0
100
AcDbLine
10
-37.500000000000007
20
-8.0000000000000071
30
0
11
37.499999999999993
21
-33.000000000000007
31
0
0
LINE
5
126
100
AcDbEntity
8
0
100
AcDbLine
10
37.499999999999993
20
-8.0000000000000071
30
0
11
-37.500000000000007
21
-33.000000000000007
31
0
0
ENDSEC
0
SECTION
2
OBJECTS
0
DICTIONARY
5
C
100
AcDbDictionary
3
ACAD_GROUP
350
D
3
ACAD_MLINESTYLE
350
17
0
DICTIONARY
5
D
100
AcDbDictionary
0
DICTIONARY
5
1A
330
C
100
AcDbDictionary
0
DICTIONARY
5
17
100
AcDbDictionary
0
ENDSEC
0
EOF
