0
SECTION
2
HEADER
9
$INSUNITS
70
4
9
$ACADVER
1
AC1014
9
$HANDSEED
5
FFFF
0
ENDSEC
0
SECTION
2
TABLES
0
TABLE
2
VPORT
5
8
100
AcDbSymbolTable
0
ENDTAB
0
TABLE
2
LTYPE
5
5
100
AcDbSymbolTable
0
LTYPE
5
14
100
AcDbSymbolTableRecord
100
AcDbLinetypeTableRecord
2
BYBLOCK
70
0
0
LTYPE
5
15
100
AcDbSymbolTableRecord
100
AcDbLinetypeTableRecord
2
BYLAYER
70
0
0
ENDTAB
0
TABLE
2
LAYER
5
2
100
AcDbSymbolTable
70
2
0
LAYER
5
50
100
AcDbSymbolTableRecord
100
AcDbLayerTableRecord
2
0
70
0
6
CONTINUOUS
0
ENDTAB
0
TABLE
2
STYLE
5
3
100
AcDbSymbolTable
70
1
0
STYLE
5
11
100
AcDbSymbolTableRecord
100
AcDbTextStyleTableRecord
2
STANDARD
70
0
0
ENDTAB
0
TABLE
2
VIEW
5
6
100
AcDbSymbolTable
70
0
0
ENDTAB
0
TABLE
2
UCS
5
7
100
AcDbSymbolTable
70
0
0
ENDTAB
0
TABLE
2
APPID
5
9
100
AcDbSymbolTable
70
2
0
APPID
5
12
100
AcDbSymbolTableRecord
100
AcDbRegAppTableRecord
2
ACAD
70
0
0
ENDTAB
0
TABLE
2
DIMSTYLE
5
A
100
AcDbSymbolTable
70
1
0
ENDTAB
0
TABLE
2
BLOCK_RECORD
5
1
100
AcDbSymbolTable
70
1
0
BLOCK_RECORD
5
1F
100
AcDbSymbolTableRecord
100
AcDbBlockTableRecord
2
*MODEL_SPACE
0
BLOCK_RECORD
5
1B
100
AcDbSymbolTableRecord
100
AcDbBlockTableRecord
2
*PAPER_SPACE
0
ENDTAB
0
ENDSEC
0
SECTION
2
BLOCKS
0
BLOCK
5
20
100
AcDbEntity
100
AcDbBlockBegin
2
*MODEL_SPACE
0
ENDBLK
5
21
100
AcDbEntity
100
AcDbBlockEnd
0
BLOCK
5
1C
100
AcDbEntity
100
AcDbBlockBegin
2
*PAPER_SPACE
0
ENDBLK
5
1D
100
AcDbEntity
100
AcDbBlockEnd
0
ENDSEC
0
SECTION
2
ENTITIES
0
LWPOLYLINE
5
100
100
AcDbEntity
8
0
100
AcDbPolyline
90
14
70
1
43
0.0
10
46.000000000000007
20
-30.000000000000018
10
46.000000000000014
20
-27.428203230275514
42
-0.26794919243112264
10
38
20
-27.428203230275514
10
38
20
-30.000000000000018
10
37.5
20
-30.000000000000018
10
37.500000000000007
20
-27.114378277661473
42
-0.11754426206342197
10
35.000000000000057
20
-24.372983346207512
10
35.000000000000007
20
-34.500000000000014
42
0.41421356237309115
10
36.000000000000007
20
-35.500000000000021
10
48.000000000000007
20
-35.500000000000014
42
0.41421356237309503
10
49
20
-34.500000000000021
10
48.999999999999972
20
-24.372983346207491
42
-0.11754426206342287
10
46.5
20
-27.11437827766148
10
46.5
20
-30.000000000000018
0
LWPOLYLINE
5
101
100
AcDbEntity
8
0
100
AcDbPolyline
90
4
70
1
43
0.0
10
38
20
-6.0000000894069672
10
37.999999999999993
20
-13.5717967697245
42
-0.2679491924311232
10
46.000000000000007
20
-13.5717967697245
10
46.000000000000007
20
-6.0000000894069672
42
0.99999999999999989
0
CIRCLE
5
102
100
AcDbEntity
8
0
100
AcDbCircle
10
42
20
-6.0000000894069672
30
0
40
2.8000000000000025
210
0
220
0
230
1
0
LWPOLYLINE
5
103
100
AcDbEntity
8
0
100
AcDbPolyline
90
8
70
1
43
0.0
10
46.5
20
-13.885621722338538
10
46.5
20
-6.0000000894069672
42
0.99999999999999989
10
37.5
20
-6.0000000894069672
10
37.500000000000007
20
-13.885621722338525
42
-0.01845400467269722
10
38
20
-13.571796769724504
10
38
20
-6.0000000894069672
42
-0.99999999999999989
10
46.000000000000007
20
-6.0000000894069672
10
45.999999999999972
20
-13.571796769724552
42
-0.018454004672698664
0
LWPOLYLINE
5
104
100
AcDbEntity
8
0
100
AcDbPolyline
90
8
70
1
43
0.0
10
37.5
20
-13.885621722338534
10
37.5
20
-6.0000000894069716
42
-0.99999999999999989
10
46.5
20
-6.0000000894069672
10
46.500000000000014
20
-13.885621722338538
42
-0.019433725028186313
10
47
20
-14.255002001601611
10
47
20
-6.0000000894069672
42
0.99999999999999989
10
37
20
-6.0000000894069672
10
37.000000000000085
20
-14.255002001601703
42
-0.019433725028183427
0
LWPOLYLINE
5
105
100
AcDbEntity
8
0
100
AcDbPolyline
90
4
70
1
43
0.0
10
37.5
20
-27.11437827766148
42
0.018454004672699836
10
38.000000000000007
20
-27.428203230275518
10
38
20
-30.000000000000018
10
37.5
20
-30.000000000000018
0
LWPOLYLINE
5
106
100
AcDbEntity
8
0
100
AcDbPolyline
90
4
70
1
43
0.0
10
46.5
20
-30.000000000000018
10
46.500000000000021
20
-27.114378277661473
42
-0.018454004672691888
10
46.000000000000007
20
-27.428203230275514
10
46.000000000000007
20
-30.000000000000018
0
LWPOLYLINE
5
107
100
AcDbEntity
8
0
100
AcDbPolyline
90
4
70
1
43
0.0
10
34.000000000000405
20
-0.50000000000146816
10
49.999999999999602
20
-0.50000000000146816
10
49.999999999999602
20
-40.499999999998536
10
34.000000000000405
20
-40.499999999998536
0
LINE
5
108
100
AcDbEntity
8
0
100
AcDbLine
10
34.000000000000405
20
-0.50000000000146816
30
0
11
49.999999999999602
21
-40.499999999998536
31
0
0
LINE
5
109
100
AcDbEntity
8
0
100
AcDbLine
10
49.999999999999602
20
-0.50000000000146816
30
0
11
34.000000000000405
21
-40.499999999998536
31
0
0
ENDSEC
0
SECTION
2
OBJECTS
0
DICTIONARY
5
C
100
AcDbDictionary
3
ACAD_GROUP
350
D
3
ACAD_MLINESTYLE
350
17
0
DICTIONARY
5
D
100
AcDbDictionary
0
DICTIONARY
5
1A
330
C
100
AcDbDictionary
0
DICTIONARY
5
17
100
AcDbDictionary
0
ENDSEC
0
EOF
