0
SECTION
2
HEADER
9
$INSUNITS
70
4
9
$ACADVER
1
AC1014
9
$HANDSEED
5
FFFF
0
ENDSEC
0
SECTION
2
TABLES
0
TABLE
2
VPORT
5
8
100
AcDbSymbolTable
0
ENDTAB
0
TABLE
2
LTYPE
5
5
100
AcDbSymbolTable
0
LTYPE
5
14
100
AcDbSymbolTableRecord
100
AcDbLinetypeTableRecord
2
BYBLOCK
70
0
0
LTYPE
5
15
100
AcDbSymbolTableRecord
100
AcDbLinetypeTableRecord
2
BYLAYER
70
0
0
ENDTAB
0
TABLE
2
LAYER
5
2
100
AcDbSymbolTable
70
2
0
LAYER
5
50
100
AcDbSymbolTableRecord
100
AcDbLayerTableRecord
2
0
70
0
6
CONTINUOUS
0
ENDTAB
0
TABLE
2
STYLE
5
3
100
AcDbSymbolTable
70
1
0
STYLE
5
11
100
AcDbSymbolTableRecord
100
AcDbTextStyleTableRecord
2
STANDARD
70
0
0
ENDTAB
0
TABLE
2
VIEW
5
6
100
AcDbSymbolTable
70
0
0
ENDTAB
0
TABLE
2
UCS
5
7
100
AcDbSymbolTable
70
0
0
ENDTAB
0
TABLE
2
APPID
5
9
100
AcDbSymbolTable
70
2
0
APPID
5
12
100
AcDbSymbolTableRecord
100
AcDbRegAppTableRecord
2
ACAD
70
0
0
ENDTAB
0
TABLE
2
DIMSTYLE
5
A
100
AcDbSymbolTable
70
1
0
ENDTAB
0
TABLE
2
BLOCK_RECORD
5
1
100
AcDbSymbolTable
70
1
0
BLOCK_RECORD
5
1F
100
AcDbSymbolTableRecord
100
AcDbBlockTableRecord
2
*MODEL_SPACE
0
BLOCK_RECORD
5
1B
100
AcDbSymbolTableRecord
100
AcDbBlockTableRecord
2
*PAPER_SPACE
0
ENDTAB
0
ENDSEC
0
SECTION
2
BLOCKS
0
BLOCK
5
20
100
AcDbEntity
100
AcDbBlockBegin
2
*MODEL_SPACE
0
ENDBLK
5
21
100
AcDbEntity
100
AcDbBlockEnd
0
BLOCK
5
1C
100
AcDbEntity
100
AcDbBlockBegin
2
*PAPER_SPACE
0
ENDBLK
5
1D
100
AcDbEntity
100
AcDbBlockEnd
0
ENDSEC
0
SECTION
2
ENTITIES
0
LWPOLYLINE
5
100
100
AcDbEntity
8
0
100
AcDbPolyline
90
6
70
1
43
0.0
10
-70.499999985098839
20
-3.499999999999992
10
-70.499999985098839
20
3.5000000000000098
10
-49.499999985098839
20
3.4999999999999902
10
-48.056624312104326
20
0.99999999996453703
42
-0.26794919243112236
10
-48.056624312104333
20
-0.99999999996460642
10
-49.499999985098839
20
-3.5000000000000009
0
LWPOLYLINE
5
101
100
AcDbEntity
8
0
100
AcDbPolyline
90
58
70
1
43
0.0
10
-70.499999985098839
20
-3.999999999999992
10
-49.211324850504027
20
-4.0000000000000009
10
-47.623611610212116
20
-1.2499999999646079
42
0.26794919243112275
10
-47.623611610212109
20
1.2499999999645373
10
-49.211324850504027
20
3.9999999999999902
10
-70.499999985098839
20
4.0000000000000098
10
-70.499999985098839
20
9.6010205144336211
42
0.19626156828141442
10
-71.357142846499173
20
11.70058316153357
42
-0.40824829046386313
10
-71.357142846499187
20
17.299416838466414
42
0.1962615682814178
10
-70.499999985098839
20
19.398979485566361
10
-70.499999985098839
20
47.468871118457692
42
-0.55652313667271114
10
-69.055555543965767
20
48.364677536578206
42
0.71841146658311872
10
-64.364677536578199
20
53.055555543965774
42
-0.55652313667271114
10
-63.468871118457685
20
54.499999985098846
10
63.468871118457685
20
54.499999985098846
42
-0.55652313667270692
10
64.364677536578199
20
53.055555543965767
42
0.71841146658311661
10
69.055555543965767
20
48.364677536578199
42
-0.55652313667271114
10
70.499999985098839
20
47.468871118457685
10
70.499999985098839
20
46.074238309665091
42
0.21846628988602776
10
71.543478251151413
20
43.80003015391295
42
-0.21846628988602357
10
73.699999985098842
20
39.09999999999998
10
73.699999985098842
20
22.09999999999998
42
-0.2184662898860231
10
71.543478251151413
20
17.399969846087025
42
0.21846628988602201
10
70.499999985098839
20
15.125761690334905
10
70.499999985098839
20
-10.500000000000007
42
0.19258240356725037
10
71.32758619610604
20
-12.56896552751803
42
-0.40000000000000069
10
71.327586196106068
20
-28.431034472481969
42
0.1925824035672509
10
70.499999985098839
20
-30.500000000000007
10
70.499999985098839
20
-37.249999999999936
10
44.133974581314405
20
-37.249999999999936
10
45.577350254117547
20
-39.74999999970391
42
-0.26794919243112214
10
45.577350254117533
20
-41.250000000296019
10
44.133974581314391
20
-43.749999999999964
10
70.499999985098839
20
-43.749999999999915
10
70.499999985098839
20
-47.468871118457692
42
-0.55652313667271114
10
69.055555543965767
20
-48.364677536578206
42
0.71841146658311872
10
64.364677536578199
20
-53.055555543965774
42
-0.55652313667271114
10
63.468871118457685
20
-54.499999985098846
10
26.000000000000007
20
-54.499999985098846
10
26.000000000000007
20
-49.499999985098846
42
0.41421356237309764
10
24.5
20
-47.99999998509886
10
-45.500000000000007
20
-47.999999985098867
42
0.41421356237309681
10
-46.999999999999993
20
-49.499999985098846
10
-47
20
-54.499999985098846
10
-63.468871118457677
20
-54.499999985098846
42
-0.55652313667270992
10
-64.364677536578199
20
-53.055555543965767
42
0.71841146658311661
10
-69.055555543965767
20
-48.364677536578199
42
-0.55652313667271114
10
-70.499999985098839
20
-47.468871118457685
10
-70.499999985098839
20
-43.750000000000057
10
-49.211324850504027
20
-43.750000000000064
10
-48.05662431212474
20
-41.750000000000099
42
0.26794919243113025
10
-48.056624312124718
20
-39.250000000000099
10
-49.211324850504027
20
-37.250000000000057
10
-70.499999985098839
20
-37.250000000000057
10
-70.499999985098839
20
-30.500000000000007
42
0.19258240356725007
10
-71.327586196106054
20
-28.431034472481986
42
-0.40000000000000069
10
-71.327586196106068
20
-12.568965527518042
42
0.19258240356725315
10
-70.499999985098839
20
-10.499999999999998
0
LWPOLYLINE
5
102
100
AcDbEntity
8
0
100
AcDbPolyline
90
6
70
1
43
0.0
10
-70.499999985098839
20
-43.250000000000057
10
-70.499999985098839
20
-37.750000000000057
10
-49.499999985098839
20
-37.750000000000057
10
-48.489637014016935
20
-39.500000000000099
42
-0.26794919243113119
10
-48.489637014016949
20
-41.500000000000092
10
-49.499999985098839
20
-43.250000000000064
0
LWPOLYLINE
5
103
100
AcDbEntity
8
0
100
AcDbPolyline
90
6
70
1
43
0.0
10
25.500000000000007
20
-54.499999985098846
10
-46.5
20
-54.499999985098846
10
-46.500000000000014
20
-49.499999985098846
42
-0.41421356237309503
10
-45.500000000000014
20
-48.499999985098853
10
24.500000000000021
20
-48.499999985098853
42
-0.4142135623730937
10
25.500000000000007
20
-49.499999985098846
0
LWPOLYLINE
5
104
100
AcDbEntity
8
0
100
AcDbPolyline
90
6
70
1
43
0.0
10
70.499999985098839
20
-43.249999999999915
10
44.999999985098839
20
-43.249999999999964
10
46.010362956009757
20
-41.500000000296026
42
0.26794919243112353
10
46.010362956009757
20
-39.49999999970391
10
44.999999985098839
20
-37.749999999999936
10
70.499999985098839
20
-37.749999999999929
0
CIRCLE
5
105
100
AcDbEntity
8
0
100
AcDbCircle
10
67.5
20
51.5
30
0
40
1.6999999999999993
210
0
220
0
230
1
0
CIRCLE
5
106
100
AcDbEntity
8
0
100
AcDbCircle
10
-67.5
20
51.5
30
0
40
1.6999999999999993
210
0
220
0
230
1
0
CIRCLE
5
107
100
AcDbEntity
8
0
100
AcDbCircle
10
67.5
20
-51.5
30
0
40
1.6999999999999993
210
0
220
0
230
1
0
CIRCLE
5
108
100
AcDbEntity
8
0
100
AcDbCircle
10
-67.5
20
-51.5
30
0
40
1.6999999999999993
210
0
220
0
230
1
0
LWPOLYLINE
5
109
100
AcDbEntity
8
0
100
AcDbPolyline
90
26
70
1
43
0.0
10
67.499999999999986
20
55
10
-67.499999999999986
20
55.000000000000007
42
0.41421356237309581
10
-71
20
51.5
10
-71
20
19.398979485566361
42
-0.1962615682814175
10
-71.714285714285722
20
17.649343955006948
42
0.40824829046386296
10
-71.714285714285722
20
11.350656044993057
42
-0.19626156828141589
10
-71
20
9.6010205144336247
10
-71
20
-10.499999999999998
42
-0.19258240356725215
10
-71.689655172413779
20
-12.224137931034477
42
0.40000000000000085
10
-71.689655172413779
20
-28.775862068965537
42
-0.19258240356725087
10
-71
20
-30.500000000000014
10
-71
20
-51.5
42
0.41421356237309581
10
-67.499999999999986
20
-55
10
67.499999999999986
20
-55.000000000000007
42
0.41421356237309581
10
71
20
-51.5
10
70.999999999999986
20
-30.500000000000004
42
-0.19258240356724879
10
71.689655172413779
20
-28.77586206896553
42
0.40000000000000119
10
71.689655172413779
20
-12.224137931034466
42
-0.19258240356724984
10
71
20
-10.499999999999998
10
71
20
15.125761690334905
42
-0.21846628988602124
10
71.869565217391312
20
17.020935144048238
42
0.21846628988602329
10
74.200000000000003
20
22.09999999999998
10
74.200000000000003
20
39.09999999999998
42
0.21846628988602315
10
71.869565217391312
20
44.179064855951722
42
-0.2184662898860287
10
71
20
46.074238309665077
10
71
20
51.5
42
0.41421356237309581
0
LWPOLYLINE
5
110
100
AcDbEntity
8
0
100
AcDbPolyline
90
4
70
1
43
0.0
10
-80
20
59.499999999999993
10
80
20
59.499999999999993
10
80
20
-100.5
10
-80
20
-100.5
0
LINE
5
111
100
AcDbEntity
8
0
100
AcDbLine
10
-80
20
59.499999999999993
30
0
11
80
21
-100.5
31
0
0
LINE
5
112
100
AcDbEntity
8
0
100
AcDbLine
10
80
20
59.499999999999993
30
0
11
-80
21
-100.5
31
0
0
ARC
5
113
100
AcDbEntity
8
0
100
AcDbCircle
10
-4.4408920985006262e-15
20
-20.500000000000007
30
0
40
8.0000000000000036
210
0
220
0
230
1
100
AcDbArc
50
-51.317812546510503
51
51.317812546510531
0
ENDSEC
0
SECTION
2
OBJECTS
0
DICTIONARY
5
C
100
AcDbDictionary
3
ACAD_GROUP
350
D
3
ACAD_MLINESTYLE
350
17
0
DICTIONARY
5
D
100
AcDbDictionary
0
DICTIONARY
5
1A
330
C
100
AcDbDictionary
0
DICTIONARY
5
17
100
AcDbDictionary
0
ENDSEC
0
EOF
