0
SECTION
2
HEADER
9
$INSUNITS
70
4
9
$ACADVER
1
AC1014
9
$HANDSEED
5
FFFF
0
ENDSEC
0
SECTION
2
TABLES
0
TABLE
2
VPORT
5
8
100
AcDbSymbolTable
0
ENDTAB
0
TABLE
2
LTYPE
5
5
100
AcDbSymbolTable
0
LTYPE
5
14
100
AcDbSymbolTableRecord
100
AcDbLinetypeTableRecord
2
BYBLOCK
70
0
0
LTYPE
5
15
100
AcDbSymbolTableRecord
100
AcDbLinetypeTableRecord
2
BYLAYER
70
0
0
ENDTAB
0
TABLE
2
LAYER
5
2
100
AcDbSymbolTable
70
2
0
LAYER
5
50
100
AcDbSymbolTableRecord
100
AcDbLayerTableRecord
2
0
70
0
6
CONTINUOUS
0
ENDTAB
0
TABLE
2
STYLE
5
3
100
AcDbSymbolTable
70
1
0
STYLE
5
11
100
AcDbSymbolTableRecord
100
AcDbTextStyleTableRecord
2
STANDARD
70
0
0
ENDTAB
0
TABLE
2
VIEW
5
6
100
AcDbSymbolTable
70
0
0
ENDTAB
0
TABLE
2
UCS
5
7
100
AcDbSymbolTable
70
0
0
ENDTAB
0
TABLE
2
APPID
5
9
100
AcDbSymbolTable
70
2
0
APPID
5
12
100
AcDbSymbolTableRecord
100
AcDbRegAppTableRecord
2
ACAD
70
0
0
ENDTAB
0
TABLE
2
DIMSTYLE
5
A
100
AcDbSymbolTable
70
1
0
ENDTAB
0
TABLE
2
BLOCK_RECORD
5
1
100
AcDbSymbolTable
70
1
0
BLOCK_RECORD
5
1F
100
AcDbSymbolTableRecord
100
AcDbBlockTableRecord
2
*MODEL_SPACE
0
BLOCK_RECORD
5
1B
100
AcDbSymbolTableRecord
100
AcDbBlockTableRecord
2
*PAPER_SPACE
0
ENDTAB
0
ENDSEC
0
SECTION
2
BLOCKS
0
BLOCK
5
20
100
AcDbEntity
100
AcDbBlockBegin
2
*MODEL_SPACE
0
ENDBLK
5
21
100
AcDbEntity
100
AcDbBlockEnd
0
BLOCK
5
1C
100
AcDbEntity
100
AcDbBlockBegin
2
*PAPER_SPACE
0
ENDBLK
5
1D
100
AcDbEntity
100
AcDbBlockEnd
0
ENDSEC
0
SECTION
2
ENTITIES
0
LWPOLYLINE
5
100
100
AcDbEntity
8
0
100
AcDbPolyline
90
16
70
1
43
0.0
10
-58.70000000000001
20
20.099999999999984
42
0.41421356237309342
10
-59.500000000000014
20
20.899999999999981
10
-67.5
20
20.899999999999981
42
-0.41421356237309503
10
-68.700000000000003
20
22.09999999999998
10
-68.700000000000003
20
39.09999999999998
42
-0.41421356237309503
10
-67.5
20
40.299999999999983
10
-35.5
20
40.299999999999983
42
-0.41421356237309503
10
-34.299999999999997
20
39.09999999999998
10
-34.299999999999997
20
22.099999999999987
42
-0.41421356237309503
10
-35.5
20
20.899999999999984
10
-43.5
20
20.899999999999984
42
0.41421356237309342
10
-44.299999999999997
20
20.099999999999984
10
-44.300000000000004
20
9.4999999999918661
42
-0.41421356237199775
10
-47.49999999999612
20
6.2999999999999972
10
-55.5
20
6.2999999999999883
42
-0.41421356237235052
10
-58.70000000000001
20
9.4999999999918643
0
CIRCLE
5
101
100
AcDbEntity
8
0
100
AcDbCircle
10
58.500000000000007
20
14.500000000000002
30
0
40
1.7500000000000002
210
0
220
-0
230
1
0
CIRCLE
5
102
100
AcDbEntity
8
0
100
AcDbCircle
10
68.5
20
14.499999999999996
30
0
40
1.7500000000000002
210
0
220
-0
230
1
0
CIRCLE
5
103
100
AcDbEntity
8
0
100
AcDbCircle
10
63.500000000000007
20
14.5
30
0
40
1.7500000000000002
210
0
220
-0
230
1
0
CIRCLE
5
104
100
AcDbEntity
8
0
100
AcDbCircle
10
53.500000000000007
20
14.500000000000002
30
0
40
1.7500000000000002
210
0
220
-0
230
1
0
CIRCLE
5
105
100
AcDbEntity
8
0
100
AcDbCircle
10
-42
20
-6.0000000894069672
30
0
40
2.7999999999999998
210
0
220
-0
230
1
0
CIRCLE
5
106
100
AcDbEntity
8
0
100
AcDbCircle
10
-21
20
-6.0000000894069672
30
0
40
2.7999999999999998
210
0
220
-0
230
1
0
CIRCLE
5
107
100
AcDbEntity
8
0
100
AcDbCircle
10
21
20
-6.0000000894069672
30
0
40
2.7999999999999998
210
0
220
-0
230
1
0
CIRCLE
5
108
100
AcDbEntity
8
0
100
AcDbCircle
10
42
20
-6.0000000894069672
30
0
40
2.7999999999999998
210
0
220
-0
230
1
0
CIRCLE
5
109
100
AcDbEntity
8
0
100
AcDbCircle
10
1.4244101671820138e-109
20
-6.0000000894069672
30
0
40
2.7999999999999998
210
0
220
-0
230
1
0
CIRCLE
5
110
100
AcDbEntity
8
0
100
AcDbCircle
10
-63.000000000000007
20
-20.500000000000007
30
0
40
8
210
0
220
-0
230
1
0
CIRCLE
5
111
100
AcDbEntity
8
0
100
AcDbCircle
10
-42
20
-20.500000000000007
30
0
40
8
210
0
220
-0
230
1
0
CIRCLE
5
112
100
AcDbEntity
8
0
100
AcDbCircle
10
-21
20
-20.500000000000007
30
0
40
8
210
0
220
-0
230
1
0
CIRCLE
5
113
100
AcDbEntity
8
0
100
AcDbCircle
10
21
20
-20.500000000000007
30
0
40
8
210
0
220
-0
230
1
0
CIRCLE
5
114
100
AcDbEntity
8
0
100
AcDbCircle
10
42
20
-20.500000000000007
30
0
40
8
210
0
220
-0
230
1
0
CIRCLE
5
115
100
AcDbEntity
8
0
100
AcDbCircle
10
63.000000000000007
20
-20.500000000000007
30
0
40
8
210
0
220
-0
230
1
0
CIRCLE
5
116
100
AcDbEntity
8
0
100
AcDbCircle
10
-3.2895517613536234e-17
20
-20.500000000000007
30
0
40
8
210
0
220
-0
230
1
0
CIRCLE
5
117
100
AcDbEntity
8
0
100
AcDbCircle
10
-10.5
20
-14.000000000000004
30
0
40
1.7000000000000002
210
0
220
-0
230
1
0
CIRCLE
5
118
100
AcDbEntity
8
0
100
AcDbCircle
10
31.500000000000004
20
-14.000000000000004
30
0
40
1.7000000000000002
210
0
220
-0
230
1
0
CIRCLE
5
119
100
AcDbEntity
8
0
100
AcDbCircle
10
10.5
20
-14.000000000000004
30
0
40
1.7000000000000002
210
0
220
-0
230
1
0
CIRCLE
5
120
100
AcDbEntity
8
0
100
AcDbCircle
10
-31.500000000000004
20
-14.000000000000004
30
0
40
1.7000000000000002
210
0
220
-0
230
1
0
CIRCLE
5
121
100
AcDbEntity
8
0
100
AcDbCircle
10
67.5
20
-51.5
30
0
40
1.7000000000000002
210
0
220
-0
230
1
0
CIRCLE
5
122
100
AcDbEntity
8
0
100
AcDbCircle
10
-67.5
20
51.5
30
0
40
1.7000000000000002
210
0
220
-0
230
1
0
CIRCLE
5
123
100
AcDbEntity
8
0
100
AcDbCircle
10
-67.5
20
-51.5
30
0
40
1.7000000000000002
210
0
220
-0
230
1
0
CIRCLE
5
124
100
AcDbEntity
8
0
100
AcDbCircle
10
67.5
20
51.5
30
0
40
1.7000000000000002
210
0
220
-0
230
1
0
LWPOLYLINE
5
125
100
AcDbEntity
8
0
100
AcDbPolyline
90
26
70
1
43
0.0
10
-71.5
20
-51.5
42
0.4142135623730957
10
-67.499999999999986
20
-55.5
10
67.499999999999986
20
-55.500000000000007
42
0.4142135623730957
10
71.5
20
-51.5
10
71.5
20
-30.500000000000014
42
-0.19258240356725226
10
72.051724137931032
20
-29.120689655172427
42
0.40000000000000041
10
72.051724137931046
20
-11.879310344827591
42
-0.19258240356725295
10
71.5
20
-10.499999999999998
10
71.5
20
9.6010205144336229
42
-0.19626156828141417
10
72.071428571428569
20
11.000728938881165
42
0.40824829046386374
10
72.071428571428569
20
17.999271061118829
42
-0.19626156828141314
10
71.5
20
19.398979485566361
10
71.5
20
51.5
42
0.4142135623730957
10
67.499999999999986
20
55.5
10
-67.499999999999986
20
55.500000000000007
42
0.4142135623730957
10
-71.5
20
51.5
10
-71.5
20
46.074238309665077
42
-0.21846628988602346
10
-72.195652173913047
20
44.558099546694407
42
0.21846628988602335
10
-74.700000000000003
20
39.09999999999998
10
-74.700000000000003
20
22.09999999999998
42
0.21846628988602301
10
-72.195652173913032
20
16.641900453305571
42
-0.21846628988602287
10
-71.5
20
15.125761690334905
10
-71.5
20
-10.499999999999998
42
-0.19258240356725179
10
-72.051724137931032
20
-11.879310344827584
42
0.40000000000000047
10
-72.051724137931046
20
-29.120689655172427
42
-0.19258240356725179
10
-71.5
20
-30.500000000000007
0
ENDSEC
0
SECTION
2
OBJECTS
0
DICTIONARY
5
C
100
AcDbDictionary
3
ACAD_GROUP
350
D
3
ACAD_MLINESTYLE
350
17
0
DICTIONARY
5
D
100
AcDbDictionary
0
DICTIONARY
5
1A
330
C
100
AcDbDictionary
0
DICTIONARY
5
17
100
AcDbDictionary
0
ENDSEC
0
EOF
