0
SECTION
2
HEADER
9
$INSUNITS
70
4
9
$ACADVER
1
AC1014
9
$HANDSEED
5
FFFF
0
ENDSEC
0
SECTION
2
TABLES
0
TABLE
2
VPORT
5
8
100
AcDbSymbolTable
0
ENDTAB
0
TABLE
2
LTYPE
5
5
100
AcDbSymbolTable
0
LTYPE
5
14
100
AcDbSymbolTableRecord
100
AcDbLinetypeTableRecord
2
BYBLOCK
70
0
0
LTYPE
5
15
100
AcDbSymbolTableRecord
100
AcDbLinetypeTableRecord
2
BYLAYER
70
0
0
ENDTAB
0
TABLE
2
LAYER
5
2
100
AcDbSymbolTable
70
2
0
LAYER
5
50
100
AcDbSymbolTableRecord
100
AcDbLayerTableRecord
2
0
70
0
6
CONTINUOUS
0
ENDTAB
0
TABLE
2
STYLE
5
3
100
AcDbSymbolTable
70
1
0
STYLE
5
11
100
AcDbSymbolTableRecord
100
AcDbTextStyleTableRecord
2
STANDARD
70
0
0
ENDTAB
0
TABLE
2
VIEW
5
6
100
AcDbSymbolTable
70
0
0
ENDTAB
0
TABLE
2
UCS
5
7
100
AcDbSymbolTable
70
0
0
ENDTAB
0
TABLE
2
APPID
5
9
100
AcDbSymbolTable
70
2
0
APPID
5
12
100
AcDbSymbolTableRecord
100
AcDbRegAppTableRecord
2
ACAD
70
0
0
ENDTAB
0
TABLE
2
DIMSTYLE
5
A
100
AcDbSymbolTable
70
1
0
ENDTAB
0
TABLE
2
BLOCK_RECORD
5
1
100
AcDbSymbolTable
70
1
0
BLOCK_RECORD
5
1F
100
AcDbSymbolTableRecord
100
AcDbBlockTableRecord
2
*MODEL_SPACE
0
BLOCK_RECORD
5
1B
100
AcDbSymbolTableRecord
100
AcDbBlockTableRecord
2
*PAPER_SPACE
0
ENDTAB
0
ENDSEC
0
SECTION
2
BLOCKS
0
BLOCK
5
20
100
AcDbEntity
100
AcDbBlockBegin
2
*MODEL_SPACE
0
ENDBLK
5
21
100
AcDbEntity
100
AcDbBlockEnd
0
BLOCK
5
1C
100
AcDbEntity
100
AcDbBlockBegin
2
*PAPER_SPACE
0
ENDBLK
5
1D
100
AcDbEntity
100
AcDbBlockEnd
0
ENDSEC
0
SECTION
2
ENTITIES
0
LWPOLYLINE
5
100
100
AcDbEntity
8
0
100
AcDbPolyline
90
74
70
1
43
0.0
10
-64.5
20
47.75834261322607
42
0.59937093520283824
10
-65.277777777777771
20
48.174082322867626
42
-0.26858899860755625
10
-69.277777764532317
20
47.916774327517942
42
0.55652313667270992
10
-69.999999985098839
20
47.468871118457692
10
-69.999999985098839
20
23.500000268220901
10
-54.000000014901168
20
23.500000268220887
42
-0.41421356237309348
10
-51.500000014901175
20
21.000000268220909
10
-51.500000014901168
20
19.398979890110635
42
0.19626157899895053
10
-50.642857066830672
20
17.299417154553396
42
-0.66449471261764281
10
-53.500000000000007
20
10.499999731779102
10
-68.500000000000014
20
10.499999731779093
42
-0.11379761882336058
10
-70.251525457894857
20
10.903868645876027
42
-0.095646020137836449
10
-69.999999985098839
20
9.6010205144336211
10
-69.999999985098839
20
4.5000000000000107
10
-48.922649715909223
20
4.4999999999999885
10
-47.190598908319885
20
1.4999999999645344
42
-0.26794919243111859
10
-47.190598908319899
20
-1.4999999999646101
10
-48.922649715909223
20
-4.5000000000000018
10
-69.999999985098839
20
-4.4999999999999929
10
-69.999999985098839
20
-10.499999999999998
42
-0.071553801173387679
10
-70.141901708411993
20
-11.486496816184353
42
-0.93247078409017792
10
-54.67241380389396
20
-28.431034472481969
42
0.19258240356725212
10
-55.500000014901183
20
-30.500000000000011
10
-55.50000001490119
20
-33.985281367214114
42
-0.41421356237309592
10
-57.000000014901183
20
-35.485281367214114
10
-69.999999985098839
20
-35.4852813672141
10
-69.999999985098839
20
-36.750000000000057
10
-48.922649715909223
20
-36.750000000000057
10
-47.623611610232501
20
-39.000000000000099
42
-0.26794919243113013
10
-47.623611610232516
20
-42.000000000000107
10
-48.922649715909223
20
-44.250000000000057
10
-69.999999985098839
20
-44.250000000000057
10
-69.999999985098839
20
-47.46887111845767
42
0.55652313667270803
10
-69.277777764532303
20
-47.916774327517963
42
-0.71841146658311772
10
-63.916774327517928
20
-53.27777776453231
42
0.55652313667271569
10
-63.46887111845767
20
-53.999999985098832
10
-47.5
20
-53.999999985098853
10
-47.499999999999993
20
-49.499999985098846
42
-0.41421356237310153
10
-45.500000000000007
20
-47.499999985098867
10
24.499999999999993
20
-47.499999985098853
42
-0.41421356237309764
10
26.500000000000004
20
-49.499999985098846
10
26.500000000000004
20
-53.999999985098853
10
63.468871118457685
20
-53.999999985098853
42
0.55652313667270725
10
63.916774327517949
20
-53.277777764532317
42
-0.71841146658312127
10
69.277777764532317
20
-47.916774327517942
42
0.55652313667270459
10
69.999999985098839
20
-47.468871118457692
10
69.999999985098839
20
-44.249999999999915
10
43.26794917752995
20
-44.249999999999957
10
45.144337552225323
20
-41.000000000296012
42
0.26794919243111981
10
45.144337552225323
20
-39.99999999970391
10
43.267949177529971
20
-36.749999999999936
10
69.999999985098839
20
-36.749999999999936
10
69.999999985098839
20
-30.500000000000011
42
-0.071553801173379866
10
70.141901708411979
20
-29.513503183815693
42
-0.93247078409017603
10
54.672413803893953
20
-12.568965527518037
42
0.19258240356725301
10
55.500000014901183
20
-10.499999999999989
10
55.500000014901175
20
-7.0147186327858968
42
-0.4142135623730942
10
57.000000014901175
20
-5.514718632785895
10
69.999999985098839
20
-5.5147186327858932
10
69.999999985098839
20
15.125761690334903
42
-0.21846628988602229
10
71.217391294629678
20
17.779004536829692
42
0.21846628988602307
10
73.199999985098842
20
22.09999999999998
10
73.199999985098842
20
39.09999999999998
42
0.21846628988602329
10
71.217391294629678
20
43.420995463170286
42
-0.21846628988602743
10
69.999999985098839
20
46.074238309665091
10
69.999999985098839
20
47.468871118457685
42
0.55652313667270215
10
69.277777764532303
20
47.916774327517963
42
-0.71841146658311772
10
63.916774327517928
20
53.27777776453231
42
0.55652313667271569
10
63.46887111845767
20
53.999999985098832
10
-10.249999999999853
20
53.999999985098846
10
-10.249999999999847
20
39.999999985098846
42
-0.41421356237309548
10
-13.249999999999851
20
36.999999985098846
10
-61.5
20
36.999999985098853
42
-0.4142135623730942
10
-64.5
20
39.999999985098846
0
LWPOLYLINE
5
101
100
AcDbEntity
8
0
100
AcDbPolyline
90
66
70
1
43
0.0
10
-36.5
20
-6.0000000894069689
42
0.99999999999999989
10
-47.5
20
-6.0000000894069592
10
-47.5
20
-14.019259301592143
42
0.46291004988625628
10
-47.5
20
-26.980740698407875
10
-47.5
20
-34.500000000000007
42
0.41421356237309853
10
-46.000000000000007
20
-36
10
-38
20
-36.000000000000007
42
0.41421356237309337
10
-36.5
20
-34.500000000000014
10
-36.5
20
-26.980740698407864
42
0.34115792037142967
10
-34.338925401427872
20
-16.817889736154989
42
0.41639356330055727
10
-28.661074598572135
20
-16.817889736154982
42
0.34115792037141729
10
-26.500000000000004
20
-26.980740698407875
10
-26.5
20
-34.500000000000007
42
0.41421356237309337
10
-25
20
-36.000000000000007
10
-17
20
-36.000000000000007
42
0.41421356237309337
10
-15.500000000000007
20
-34.500000000000014
10
-15.499999999999998
20
-26.98074069840786
42
0.34115792037141973
10
-13.338925401427865
20
-16.817889736154996
42
0.41639356330055555
10
-7.6610745985721387
20
-16.817889736154999
42
0.34115792037141557
10
-5.4999999999999982
20
-26.980740698407864
10
-5.5
20
-34.500000000000007
42
0.41421356237309825
10
-3.9999999999999991
20
-36.000000000000007
10
4
20
-36.000000000000007
42
0.41421356237309337
10
5.4999999999999982
20
-34.500000000000014
10
5.5000000000000018
20
-26.980740698407864
42
0.34115792037142134
10
7.6610745985721405
20
-16.817889736154999
42
0.41639356330055616
10
13.338925401427876
20
-16.817889736154989
42
0.34115792037141751
10
15.500000000000004
20
-26.980740698407864
10
15.500000000000005
20
-34.500000000000007
42
0.41421356237309681
10
17.000000000000007
20
-36.000000000000007
10
25.000000000000004
20
-36.000000000000007
42
0.41421356237309337
10
26.500000000000004
20
-34.500000000000014
10
26.500000000000004
20
-26.980740698407864
42
0.34115792037141851
10
28.661074598572149
20
-16.817889736154999
42
0.41639356330055532
10
34.338925401427865
20
-16.817889736154989
42
0.23889135483231524
10
34.500000000000014
20
-24.500000000000028
10
34.500000000000007
20
-34.500000000000014
42
0.41421356237309592
10
36.000000000000007
20
-36.000000000000014
10
48.000000000000007
20
-36.000000000000021
42
0.41421356237309337
10
49.500000000000014
20
-34.500000000000021
10
49.499999999999964
20
-24.500000000000082
42
0.35290257254686036
10
47.5
20
-14.01925930159214
10
47.5
20
-6.0000000894069689
42
0.99999999999999989
10
36.5
20
-6.0000000894069672
10
36.5
20
-14.019259301592147
42
0.051668231665672248
10
35.288123778900001
20
-15.284569280238465
42
1.3950360623572309
10
27.711876221099999
20
-15.284569280238456
42
0.051668231665672658
10
26.500000000000004
20
-14.019259301592149
10
26.500000000000004
20
-6.0000000894069689
42
0.99999999999999989
10
15.500000000000007
20
-6.0000000894069672
10
15.500000000000004
20
-14.01925930159215
42
0.05166823166567306
10
14.288123778900005
20
-15.284569280238467
42
1.395036062357234
10
6.711876221099998
20
-15.284569280238468
42
0.051668231665673199
10
5.4999999999999982
20
-14.019259301592149
10
5.5
20
-6.0000000894069689
42
0.99999999999999989
10
-5.4999999999999982
20
-6.0000000894069672
10
-5.5000000000000053
20
-14.019259301592147
42
0.051668231665672248
10
-6.7118762210999954
20
-15.284569280238468
42
1.3950360623572351
10
-14.288123778899999
20
-15.284569280238474
42
0.05166823166567374
10
-15.500000000000007
20
-14.019259301592149
10
-15.5
20
-6.0000000894069689
42
0.99999999999999989
10
-26.500000000000004
20
-6.0000000894069672
10
-26.500000000000004
20
-14.019259301592143
42
0.051668231665672387
10
-27.711876221099999
20
-15.284569280238458
42
1.3950360623572309
10
-35.288123778900015
20
-15.284569280238461
42
0.051668231665675912
10
-36.5
20
-14.019259301592149
0
LWPOLYLINE
5
102
100
AcDbEntity
8
0
100
AcDbPolyline
90
14
70
1
43
0.0
10
35.5
20
42.799999999999983
42
0.41421356237309398
10
31.799999999999994
20
39.09999999999998
10
31.799999999999997
20
22.099999999999987
42
0.41421356237309503
10
35.5
20
18.399999999999984
10
43.799999999999997
20
18.399999999999956
10
43.800000000000011
20
9.4999999999905977
42
0.41421356237204465
10
47.49999999999612
20
5.7999999999999963
10
55.5
20
5.7999999999999901
42
0.41421356237245111
10
59.20000000000001
20
9.4999999999918661
10
59.20000000000001
20
18.399999999999956
10
67.500000000000028
20
18.399999999999949
42
0.41421356237309048
10
71.200000000000031
20
22.099999999999952
10
71.200000000000031
20
39.09999999999998
42
0.41421356237309293
10
67.500000000000028
20
42.799999999999983
0
LWPOLYLINE
5
103
100
AcDbEntity
8
0
100
AcDbPolyline
90
4
70
1
43
0.0
10
-79.999999999999929
20
59.499999999999922
10
80.000000000000071
20
59.499999999999922
10
80.000000000000071
20
-100.50000000000009
10
-79.999999999999929
20
-100.50000000000009
0
LINE
5
104
100
AcDbEntity
8
0
100
AcDbLine
10
-79.999999999999929
20
59.499999999999922
30
0
11
80.000000000000071
21
-100.50000000000009
31
0
0
LINE
5
105
100
AcDbEntity
8
0
100
AcDbLine
10
80.000000000000071
20
59.499999999999922
30
0
11
-79.999999999999929
21
-100.50000000000009
31
0
0
LWPOLYLINE
5
106
100
AcDbEntity
8
0
100
AcDbPolyline
90
4
70
1
43
0.0
10
-53.249999999999851
20
42.499999985098846
42
0.99999999999999989
10
-53.249999999999851
20
37.499999985098846
10
-13.249999999999851
20
37.499999985098846
42
0.99999999999999989
10
-13.249999999999851
20
42.499999985098846
0
ENDSEC
0
SECTION
2
OBJECTS
0
DICTIONARY
5
C
100
AcDbDictionary
3
ACAD_GROUP
350
D
3
ACAD_MLINESTYLE
350
17
0
DICTIONARY
5
D
100
AcDbDictionary
0
DICTIONARY
5
1A
330
C
100
AcDbDictionary
0
DICTIONARY
5
17
100
AcDbDictionary
0
ENDSEC
0
EOF
